<?xml version="1.0" encoding="UTF-8" standalone="no"?>
<svg
   xmlns:dc="http://purl.org/dc/elements/1.1/"
   xmlns:cc="http://creativecommons.org/ns#"
   xmlns:rdf="http://www.w3.org/1999/02/22-rdf-syntax-ns#"
   xmlns:svg="http://www.w3.org/2000/svg"
   xmlns="http://www.w3.org/2000/svg"
   xmlns:sodipodi="http://sodipodi.sourceforge.net/DTD/sodipodi-0.dtd"
   xmlns:inkscape="http://www.inkscape.org/namespaces/inkscape"
   id="d"
   width="52"
   height="51.646591"
   version="1.1"
   sodipodi:docname="func_about.svg"
   inkscape:version="0.92.3 (2405546, 2018-03-11)">
  <sodipodi:namedview
     pagecolor="#ffffff"
     bordercolor="#666666"
     borderopacity="1"
     objecttolerance="10"
     gridtolerance="10"
     guidetolerance="10"
     inkscape:pageopacity="0"
     inkscape:pageshadow="2"
     inkscape:window-width="1920"
     inkscape:window-height="1014"
     id="namedview45"
     showgrid="false"
     fit-margin-top="2"
     fit-margin-left="2"
     fit-margin-right="2"
     fit-margin-bottom="2"
     inkscape:pagecheckerboard="true"
     inkscape:zoom="13.111111"
     inkscape:cx="25.847349"
     inkscape:cy="25.765215"
     inkscape:window-x="0"
     inkscape:window-y="0"
     inkscape:window-maximized="1"
     inkscape:current-layer="d" />
  <metadata
     id="a">
    <rdf:RDF>
      <cc:Work
         rdf:about="">
        <dc:format>image/svg+xml</dc:format>
        <dc:type
           rdf:resource="http://purl.org/dc/dcmitype/StillImage" />
        <dc:title></dc:title>
      </cc:Work>
    </rdf:RDF>
  </metadata>
  <defs
     id="e">
    <style
       id="current-color-scheme"
       type="text/css">.ColorScheme-Text{color:#090d11;}.ColorScheme-Background{color:#ffffff;}</style>
  </defs>
  <path
     id="b"
     class="ColorScheme-Background"
     d="M 25.853149,2.0001408 C 13.494863,2.0755808 3.1924687,11.562619 2.0955704,23.877754 0.99855147,36.192586 9.4597258,47.348057 21.609798,49.60975 a 1.5089518,1.5089518 0 1 0 0.554001,-2.964553 C 19.477409,46.14515 17.003097,45.148255 14.81443,43.769061 A 1.5089518,1.5089518 0 0 1 14.584573,43.639394 C 5.7155398,38.023637 2.3213414,26.711553 6.6337961,17.141229 9.8683634,9.9635618 16.713793,5.3837478 24.185375,4.7760028 c 0.622622,-0.04225 1.250826,-0.07073 1.880117,-0.07073 1.887872,0.01569 3.797048,0.288616 5.687576,0.836902 8.44506,2.448753 14.295586,9.8138442 15.111546,18.2471362 0.0033,0.03183 0.0084,0.06242 0.01177,0.0943 0.0048,0.04739 0.0014,0.0941 0.006,0.14145 0.04152,0.486377 0.06916,0.975047 0.07662,1.46755 0.0097,0.377804 0.0045,0.751474 -0.006,1.125716 -0.0045,0.119953 -0.0051,0.239326 -0.01177,0.359518 -0.430464,9.511182 -7.257939,17.712118 -16.850292,19.62045 a 1.5089518,1.5089518 0 1 0 0.589368,2.958668 C 42.801413,47.145899 51.124864,35.883907 49.87618,23.583257 48.627587,11.282607 38.211641,1.9241178 25.853354,2.0004638 Z m 0.02357,8.7404832 A 15.069903,15.068998 0 0 0 10.806512,25.810829 15.069903,15.068998 0 0 0 22.841613,40.556944 v -8.716946 a 3.0179035,3.0179035 0 0 1 2.970467,-3.058943 3.0179035,3.0179035 0 0 1 3.064676,3.058943 v 8.740483 A 15.069903,15.068998 0 0 0 40.947163,25.810829 15.069903,15.068998 0 0 0 25.876958,10.740624 Z m -0.01768,6.011667 a 3.0179035,3.0179035 0 0 1 3.017601,3.017602 3.0179035,3.0179035 0 0 1 -3.017601,3.017601 3.0179035,3.0179035 0 0 1 -3.017602,-3.017601 3.0179035,3.0179035 0 0 1 3.017602,-3.017602 z"
     style="color:#ffffff;fill:currentColor;fill-opacity:0.5;stroke-width:3.01760173"
     inkscape:connector-curvature="0" />
  <path
     id="c"
     class="ColorScheme-Text"
     d="m 26.070417,4.6818838 c -0.629291,0 -1.257465,0.03018 -1.880117,0.07242 C 16.718718,5.3620488 9.8732881,9.9415618 6.6387208,17.119229 2.3259643,26.689553 5.7204646,38.001939 14.589498,43.617696 a 1.5089518,1.5089518 0 1 0 1.6149,-2.546253 C 8.5858585,36.247809 5.6865467,26.583637 9.3912564,18.362785 13.095664,10.142234 22.260423,5.9088408 30.921242,8.4200888 39.582061,10.931337 45.055688,19.408082 43.78739,28.335053 42.66276,36.251128 36.540921,42.331897 28.882248,43.611662 V 31.818271 a 3.0179035,3.0179035 0 0 0 -3.064676,-3.058943 3.0179035,3.0179035 0 0 0 -2.970437,3.058943 v 12.070407 a 3.0179035,3.0179035 0 0 0 3.718893,2.970528 C 36.763107,46.529683 45.331588,38.92412 46.775812,28.759328 48.252294,18.366708 41.840524,8.4439278 31.758415,5.5204748 29.868038,4.9721768 27.958952,4.6990838 26.070839,4.6833918 Z M 25.864013,16.728753 a 3.0179035,3.0179035 0 0 0 -3.017602,3.017602 3.0179035,3.0179035 0 0 0 3.017602,3.017602 3.0179035,3.0179035 0 0 0 3.017601,-3.017602 3.0179035,3.0179035 0 0 0 -3.017601,-3.017602 z"
     style="color:#090d11;fill:currentColor;fill-opacity:0.75;stroke-width:3.01760173"
     inkscape:connector-curvature="0" />
</svg>
