<?xml version="1.0" encoding="UTF-8" standalone="no"?>
<!-- Created with Inkscape (http://www.inkscape.org/) -->

<svg
   xmlns:dc="http://purl.org/dc/elements/1.1/"
   xmlns:cc="http://creativecommons.org/ns#"
   xmlns:rdf="http://www.w3.org/1999/02/22-rdf-syntax-ns#"
   xmlns:svg="http://www.w3.org/2000/svg"
   xmlns="http://www.w3.org/2000/svg"
   xmlns:sodipodi="http://sodipodi.sourceforge.net/DTD/sodipodi-0.dtd"
   xmlns:inkscape="http://www.inkscape.org/namespaces/inkscape"
   width="50"
   height="50"
   version="1.0"
   id="svg11"
   sodipodi:docname="edit-clear.svg"
   inkscape:version="0.92.3 (2405546, 2018-03-11)">
  <sodipodi:namedview
     pagecolor="#ffffff"
     bordercolor="#666666"
     borderopacity="1"
     objecttolerance="10"
     gridtolerance="10"
     guidetolerance="10"
     inkscape:pageopacity="0"
     inkscape:pageshadow="2"
     inkscape:window-width="1482"
     inkscape:window-height="863"
     id="namedview13"
     showgrid="false"
     inkscape:pagecheckerboard="true"
     inkscape:zoom="9.2709556"
     inkscape:cx="24.519717"
     inkscape:cy="6.7613252"
     inkscape:window-x="0"
     inkscape:window-y="0"
     inkscape:window-maximized="0"
     inkscape:current-layer="svg11" />
  <metadata
     id="metadata2">
    <rdf:RDF>
      <cc:Work
         rdf:about="">
        <dc:format>image/svg+xml</dc:format>
        <dc:type
           rdf:resource="http://purl.org/dc/dcmitype/StillImage" />
        <dc:title></dc:title>
      </cc:Work>
    </rdf:RDF>
  </metadata>
  <defs
     id="defs5">
    <style
       id="current-color-scheme"
       type="text/css">.ColorScheme-Text {
			color:#090d11;
			}
			.ColorScheme-Background{
			color:#ffffff;
			}</style>
  </defs>
  <path
     class="ColorScheme-Text"
     d="M 19,4 C 10.69,4 4,10.69 4,19 v 12 c 0,8.31 6.69,15 15,15 h 12 c 8.31,0 15,-6.69 15,-15 V 19 C 46,10.69 39.31,4 31,4 Z m -0.87891,12 6.879,6.879 6.879,-6.879 2.12109,2.12109 -6.879,6.879 6.879,6.879 -2.12109,2.12109 -6.879,-6.879 -6.879,6.879 L 16,31.87909 22.879,25.00009 16,18.12109 Z"
     style="color:#090d11;fill:currentColor;fill-opacity:0.75;stroke-width:3"
     id="path7"
     inkscape:connector-curvature="0" />
  <path
     class="ColorScheme-Background"
     d="M 19,1 C 9.0538,1 1,9.0538 1,19 v 12 c 0,9.9462 8.0538,18 18,18 h 12 c 9.9462,0 18,-8.0538 18,-18 V 19 C 49,9.0538 40.9462,1 31,1 Z m 0,3 h 12 c 8.3358,0 15,6.6642 15,15 v 12 c 0,8.3358 -6.6642,15 -15,15 H 19 C 10.6642,46 4,39.3358 4,31 V 19 C 4,10.6642 10.6642,4 19,4 Z M 18.12109,16 16,18.12109 l 6.879,6.879 -6.879,6.879 2.12109,2.12109 6.879,-6.879 6.879,6.879 2.12109,-2.12109 -6.879,-6.879 6.879,-6.879 L 31.87909,16 l -6.879,6.879 z"
     style="color:#ffffff;fill:currentColor;fill-opacity:0.5;stroke-width:3"
     id="path9"
     inkscape:connector-curvature="0" />
</svg>
