<?xml version="1.0" encoding="UTF-8" standalone="no"?>
<svg
   xmlns:dc="http://purl.org/dc/elements/1.1/"
   xmlns:cc="http://creativecommons.org/ns#"
   xmlns:rdf="http://www.w3.org/1999/02/22-rdf-syntax-ns#"
   xmlns:svg="http://www.w3.org/2000/svg"
   xmlns="http://www.w3.org/2000/svg"
   xmlns:sodipodi="http://sodipodi.sourceforge.net/DTD/sodipodi-0.dtd"
   xmlns:inkscape="http://www.inkscape.org/namespaces/inkscape"
   id="b"
   width="52"
   height="45.999714"
   version="1.1"
   sodipodi:docname="object-hidden.svg"
   inkscape:version="0.92.3 (2405546, 2018-03-11)">
  <sodipodi:namedview
     pagecolor="#ffffff"
     bordercolor="#666666"
     borderopacity="1"
     objecttolerance="10"
     gridtolerance="10"
     guidetolerance="10"
     inkscape:pageopacity="0"
     inkscape:pageshadow="2"
     inkscape:window-width="1920"
     inkscape:window-height="1014"
     id="namedview77"
     showgrid="false"
     fit-margin-top="2"
     fit-margin-left="2"
     fit-margin-right="2"
     fit-margin-bottom="2"
     inkscape:zoom="13.111111"
     inkscape:cx="37.436858"
     inkscape:cy="20.600872"
     inkscape:window-x="0"
     inkscape:window-y="0"
     inkscape:window-maximized="1"
     inkscape:current-layer="b" />
  <metadata
     id="d">
    <rdf:RDF>
      <cc:Work
         rdf:about="">
        <dc:format>image/svg+xml</dc:format>
        <dc:type
           rdf:resource="http://purl.org/dc/dcmitype/StillImage" />
        <dc:title></dc:title>
      </cc:Work>
    </rdf:RDF>
  </metadata>
  <defs
     id="f">
    <style
       id="current-color-scheme"
       type="text/css">.ColorScheme-Text {color:#090d11;}.ColorScheme-Background{color:#ffffff;}</style>
  </defs>
  <path
     id="c"
     d="m 26,4.999983 c -2.004908,0 -3.987854,0.492865 -5.62497,1.687448 L 4.7187335,18.12488 C 3.0699396,19.328166 2,21.153059 2,22.999846 c 0,1.846785 1.0699396,3.671681 2.7187335,4.87496 L 20.37503,39.312223 c 3.286797,2.398508 7.963136,2.398508 11.249941,0 L 47.281276,27.874806 C 48.93038,26.671527 50,24.846631 50,22.999846 50,21.153059 48.93038,19.328166 47.281276,18.12488 L 31.624971,6.687431 C 29.987852,5.492848 28.004921,4.999983 26,4.999983 Z m 0,3.562446 c 1.311322,0 2.658255,0.465306 3.562507,1.124992 L 45.21874,21.124855 c 0.892269,0.651002 1.125062,1.274093 1.125062,1.874991 0,0.600895 -0.234115,1.223994 -1.125062,1.874989 L 29.562507,36.31224 c -1.795539,1.31014 -5.32948,1.31014 -7.125003,0 L 6.7812226,24.874835 C 5.8893279,24.22384 5.6562254,23.600741 5.6562254,22.999846 c 0,-0.600898 0.2339962,-1.223989 1.1249972,-1.874991 L 22.437504,9.687421 C 23.341744,9.027735 24.688679,8.562429 26,8.562429 Z m 0,11.437432 c -11.999943,0 -17.9998888,2.999985 -17.9998888,2.999985 0,0 5.9999458,2.99998 17.9998888,2.99998 11.999954,0 17.999908,-2.99998 17.999908,-2.99998 0,0 -5.999954,-2.999985 -17.999908,-2.999985 z"
     style="color:#090d11;fill:currentColor;fill-opacity:0.75;stroke-width:2.99997663"
     class="ColorScheme-Text"
     inkscape:connector-curvature="0" />
  <path
     id="a"
     d="M 26,2 C 20.783649,2 19.702418,2.857965 17.281442,4.624968 6.4023208,12.91902 2.4222506,14.954492 2.0940475,22.062353 2.3088794,20.975401 2.9037441,19.508018 4.1565394,18.593776 L 19.906417,7.062437 C 21.935346,5.581955 23.806405,4.999983 26,4.999983 c 2.193944,0 4.064974,0.581933 6.093587,2.062454 l 15.749859,11.531339 c 1.252797,0.914274 1.847623,2.381829 2.062484,3.468577 C 49.577601,14.954492 45.597638,12.91902 34.718564,4.624968 32.297258,2.857965 31.216348,2 26,2 Z M 5.0001306,22.999846 c 0,0 5.9999634,5.999958 20.9998694,5.999958 14.999918,0 20.999865,-5.999958 20.999865,-5.999958 0,0 -8.999911,2.99998 -20.999865,2.99998 -11.999943,0 -20.9998694,-2.99998 -20.9998694,-2.99998 z m -2.9062334,0.937497 c 0.3283534,7.107847 4.3082776,9.143336 15.1873968,17.437389 2.42128,1.767026 3.502196,2.624983 8.718559,2.624983 5.216326,0 6.297573,-0.857957 8.718536,-2.624983 10.879105,-8.294053 14.859212,-10.329542 15.187437,-17.437389 -0.214932,1.086918 -0.809504,2.554536 -2.062482,3.468581 L 32.093427,38.937237 c -2.028625,1.480527 -3.899979,2.062484 -6.093574,2.062484 -2.19359,0 -4.064975,-0.581957 -6.093547,-2.062484 L 4.1563864,27.405924 C 2.9035981,26.491764 2.3087308,25.024114 2.0938972,23.937343 Z"
     style="color:#ffffff;fill:currentColor;fill-opacity:0.5;stroke-width:2.99997663"
     class="ColorScheme-Background"
     inkscape:connector-curvature="0" />
</svg>
