<?xml version="1.0" encoding="UTF-8" standalone="no"?>
<svg
   xmlns:dc="http://purl.org/dc/elements/1.1/"
   xmlns:cc="http://creativecommons.org/ns#"
   xmlns:rdf="http://www.w3.org/1999/02/22-rdf-syntax-ns#"
   xmlns:svg="http://www.w3.org/2000/svg"
   xmlns="http://www.w3.org/2000/svg"
   xmlns:sodipodi="http://sodipodi.sourceforge.net/DTD/sodipodi-0.dtd"
   xmlns:inkscape="http://www.inkscape.org/namespaces/inkscape"
   id="b"
   width="52"
   height="52"
   version="1.1"
   sodipodi:docname="func_firmware.svg"
   inkscape:version="0.92.3 (2405546, 2018-03-11)">
  <sodipodi:namedview
     pagecolor="#ffffff"
     bordercolor="#666666"
     borderopacity="1"
     objecttolerance="10"
     gridtolerance="10"
     guidetolerance="10"
     inkscape:pageopacity="0"
     inkscape:pageshadow="2"
     inkscape:window-width="640"
     inkscape:window-height="480"
     id="namedview53"
     showgrid="false"
     inkscape:pagecheckerboard="true"
     inkscape:measure-start="-3.82916,5.44712"
     inkscape:measure-end="-0.0539319,10.0853"
     fit-margin-top="2"
     fit-margin-left="2"
     fit-margin-right="2"
     fit-margin-bottom="2"
     inkscape:zoom="6.5555556"
     inkscape:cx="83.879659"
     inkscape:cy="35.12228"
     inkscape:window-x="234"
     inkscape:window-y="388"
     inkscape:window-maximized="0"
     inkscape:current-layer="b" />
  <metadata
     id="a">
    <rdf:RDF>
      <cc:Work
         rdf:about="">
        <dc:format>image/svg+xml</dc:format>
        <dc:type
           rdf:resource="http://purl.org/dc/dcmitype/StillImage" />
        <dc:title></dc:title>
      </cc:Work>
    </rdf:RDF>
  </metadata>
  <defs
     id="f">
    <style
       id="current-color-scheme"
       type="text/css">.ColorScheme-Text {color:#090d11;}.ColorScheme-Background{color:#ffffff;}</style>
  </defs>
  <path
     id="d"
     class="ColorScheme-Text"
     d="m 17,2 v 6 h 3 V 2 Z m 6,0 v 6 h 3 V 2 Z m 6,0 v 6 h 3 V 2 Z m -15,9 c -1.6614,0 -3,1.3386 -3,3 v 24 c 0,1.6614 1.3386,3 3,3 h 24 c 1.6614,0 3,-1.3386 3,-3 V 14 c 0,-1.6614 -1.3386,-3 -3,-3 z m 12,6 c 1.662,0 3,1.338 3,3 0,1.662 -1.338,3 -3,3 -1.662,0 -3,-1.338 -3,-3 0,-1.662 1.338,-3 3,-3 z m 18,0 v 3 h 6 V 17 Z M 2,20 v 3 h 6 v -3 z m 42,3 v 3 h 6 V 23 Z M 2,26 v 3 h 6 v -3 z m 21,0 h 6 v 9 h -6 z m 21,3 v 3 h 6 V 29 Z M 2,32 v 3 h 6 v -3 z m 18,12 v 6 h 3 v -6 z m 6,0 v 6 h 3 v -6 z m 6,0 v 6 h 3 v -6 z"
     style="color:#090d11;fill:currentColor;fill-opacity:0.75;stroke-width:3"
     inkscape:connector-curvature="0" />
  <path
     id="c"
     class="ColorScheme-Background"
     d="m 20,2 v 6 h -6 c -3.3243,0 -6,2.67579 -6,6 v 3 H 2 v 3 h 6 v 3 H 2 v 3 h 6 v 3 H 2 v 3 h 6 v 6 c 0,3.3243 2.67579,6 6,6 h 3 v 6 h 3 v -6 h 3 v 6 h 3 v -6 h 3 v 6 h 3 v -6 h 6 c 3.3243,0 6,-2.67582 6,-6 v -3 h 6 v -3 h -6 v -3 h 6 v -3 h -6 v -3 h 6 V 20 H 44 V 14 C 44,10.6757 41.32418,8 38,8 H 35 V 2 H 32 V 8 H 29 V 2 H 26 V 8 H 23 V 2 Z m -6,9 h 24 c 1.6614,0 3,1.3386 3,3 v 24 c 0,1.6614 -1.3386,3 -3,3 H 14 c -1.6614,0 -3,-1.3386 -3,-3 V 14 c 0,-1.6614 1.3386,-3 3,-3 z m 12,6 c -1.662,0 -3,1.338 -3,3 0,1.662 1.338,3 3,3 1.662,0 3,-1.338 3,-3 0,-1.662 -1.338,-3 -3,-3 z m -3,9 v 9 h 6 v -9 z"
     style="color:#ffffff;fill:currentColor;fill-opacity:0.5;stroke-width:3"
     inkscape:connector-curvature="0" />
</svg>
