<?xml version="1.0" encoding="UTF-8" standalone="no"?>
<svg
   xmlns:dc="http://purl.org/dc/elements/1.1/"
   xmlns:cc="http://creativecommons.org/ns#"
   xmlns:rdf="http://www.w3.org/1999/02/22-rdf-syntax-ns#"
   xmlns:svg="http://www.w3.org/2000/svg"
   xmlns="http://www.w3.org/2000/svg"
   xmlns:sodipodi="http://sodipodi.sourceforge.net/DTD/sodipodi-0.dtd"
   xmlns:inkscape="http://www.inkscape.org/namespaces/inkscape"
   id="a"
   width="52"
   height="51.971855"
   version="1.1"
   sodipodi:docname="func_reset.svg"
   viewBox="0 0 52 51.971855"
   inkscape:version="0.92.3 (2405546, 2018-03-11)">
  <sodipodi:namedview
     pagecolor="#ffffff"
     bordercolor="#666666"
     borderopacity="1"
     objecttolerance="10"
     gridtolerance="10"
     guidetolerance="10"
     inkscape:pageopacity="0"
     inkscape:pageshadow="2"
     inkscape:window-width="1920"
     inkscape:window-height="1014"
     id="namedview61"
     showgrid="false"
     scale-x="1"
     fit-margin-top="2"
     fit-margin-left="2"
     fit-margin-right="2"
     fit-margin-bottom="2"
     inkscape:zoom="13.111111"
     inkscape:cx="13.040944"
     inkscape:cy="22.182182"
     inkscape:window-x="0"
     inkscape:window-y="0"
     inkscape:window-maximized="1"
     inkscape:current-layer="a" />
  <metadata
     id="e">
    <rdf:RDF>
      <cc:Work
         rdf:about="">
        <dc:format>image/svg+xml</dc:format>
        <dc:type
           rdf:resource="http://purl.org/dc/dcmitype/StillImage" />
        <dc:title></dc:title>
      </cc:Work>
    </rdf:RDF>
  </metadata>
  <defs
     id="b">
    <style
       id="current-color-scheme"
       type="text/css">.ColorScheme-Text {color:#090d11;}.ColorScheme-Background{color:#ffffff;}</style>
  </defs>
  <path
     id="d"
     class="ColorScheme-Text"
     d="m 28.990252,5.002221 v 13.509991 l 5.347555,-4.784938 c 3.974339,2.69089 6.661326,7.129072 6.661326,12.290489 0,7.148587 -5.035324,13.123306 -11.727273,14.635825 -0.09907,0.03002 -0.182385,0.07581 -0.281458,0.09382 -7.732519,1.598082 -15.474645,-3.158336 -17.544375,-10.883049 -2.1459877,-8.007822 2.687287,-16.242612 10.69541,-18.3886 0.285211,-0.07806 0.557362,-0.133598 0.844374,-0.187638 V 5.283679 C 22.174611,5.409772 21.339394,5.538718 20.546507,5.752776 9.3353154,8.756798 2.7190222,20.248096 5.7230439,31.459288 8.5070028,41.848772 18.606472,48.254309 28.990252,46.751998 c 0.632568,-0.09007 1.242919,-0.225167 1.876388,-0.375278 0.18914,-0.04503 0.374977,-0.04578 0.562916,-0.09382 V 46.18908 C 40.377374,43.785804 47.003574,35.726344 47.003574,26.017763 47.003574,19.3072 43.822722,13.358 38.935107,9.505551 l 5.066247,-4.50333 z m -6.004441,15.011102 v 12.008881 h 6.004441 V 20.013323 Z"
     style="color:#090d11;fill:currentColor;fill-opacity:0.75;stroke-width:3.00222039"
     inkscape:connector-curvature="0" />
  <path
     id="c"
     class="ColorScheme-Background"
     d="m 25.988032,2 v 15.011102 h 3.00222 V 5.002221 H 40.999133 V 2 Z M 19.760826,2.856114 C 6.9908816,6.282247 -0.60083306,19.470701 2.8204972,32.239144 5.9944446,44.084105 17.565002,51.439545 29.418369,49.724676 c 0.778175,-0.111082 1.480965,-0.273142 2.140252,-0.428056 -0.243179,0.05704 -0.03924,0.05956 0.609841,-0.105558 l 2.25752,-0.574655 V 48.088676 C 43.431442,44.646931 50,36.224502 50,26.017553 50,19.635733 47.087786,14.183101 43.02224,9.886623 l -2.398264,-1.882242 -1.688749,1.50111 c 4.887615,3.852449 8.068467,9.801649 8.068467,16.512212 0,9.70828 -6.6262,17.767741 -15.574018,20.171318 v 0.09382 c -0.187939,0.04803 -0.373776,0.04879 -0.562916,0.09382 -0.633469,0.150111 -1.24382,0.285211 -1.876388,0.375278 C 18.606592,48.254249 8.5071229,41.848712 5.723164,31.459228 2.7191423,20.248036 9.3354355,8.756738 20.546627,5.752716 L 19.760886,2.856054 Z m 14.67095,10.77737 -2.439304,1.911574 c 3.598161,2.073303 6.004441,5.973518 6.004441,10.437519 0,2.201318 -0.562316,4.23193 -1.577337,6.004441 -0.290584,0.507435 -0.617496,1.020425 -0.979234,1.477663 -2.324589,2.92056 -5.857932,4.513238 -9.45219,4.526748 v 3.037346 c 3.234592,-0.01051 6.389925,-1.045583 9.006661,-3.00222 0.317214,-0.238197 0.641334,-0.488882 0.938194,-0.750555 0.131287,-0.115526 0.247653,-0.254739 0.375277,-0.375278 0.330755,-0.312501 0.637131,-0.597322 0.938194,-0.938194 0.07608,-0.08577 0.113304,-0.193673 0.187639,-0.281458 0.573364,-0.677241 1.13625,-1.363368 1.594929,-2.157846 1.272071,-2.20393 1.970207,-4.774731 1.970207,-7.505551 0,-5.153911 -2.603525,-9.674355 -6.567357,-12.384159 z m -14.448185,6.379719 v 12.008881 h 3.00222 V 20.013203 Z"
     style="color:#ffffff;fill:currentColor;fill-opacity:0.5;stroke-width:3.00222039"
     inkscape:connector-curvature="0" />
</svg>
