<?xml version="1.0" encoding="UTF-8" standalone="no"?>
<!-- Created with Inkscape (http://www.inkscape.org/) -->

<svg
   xmlns:dc="http://purl.org/dc/elements/1.1/"
   xmlns:cc="http://creativecommons.org/ns#"
   xmlns:rdf="http://www.w3.org/1999/02/22-rdf-syntax-ns#"
   xmlns:svg="http://www.w3.org/2000/svg"
   xmlns="http://www.w3.org/2000/svg"
   xmlns:sodipodi="http://sodipodi.sourceforge.net/DTD/sodipodi-0.dtd"
   xmlns:inkscape="http://www.inkscape.org/namespaces/inkscape"
   width="64"
   height="64"
   id="svg13094"
   version="1.1"
   inkscape:version="0.92.3 (2405546, 2018-03-11)"
   sodipodi:docname="os_win.svg"
   inkscape:export-filename="/home/onecastell/Pictures/distributor-logo-fedora-modded.svg.png"
   inkscape:export-xdpi="96"
   inkscape:export-ydpi="96">
  <sodipodi:namedview
     id="base"
     pagecolor="#ffffff"
     bordercolor="#666666"
     borderopacity="1.0"
     inkscape:pageopacity="0"
     inkscape:pageshadow="2"
     inkscape:zoom="3.69"
     inkscape:cx="35.991878"
     inkscape:cy="11.271866"
     inkscape:document-units="px"
     inkscape:current-layer="svg13094"
     showgrid="true"
     inkscape:snap-bbox="true"
     inkscape:bbox-paths="true"
     inkscape:bbox-nodes="true"
     inkscape:snap-bbox-edge-midpoints="true"
     inkscape:snap-bbox-midpoints="true"
     inkscape:object-paths="true"
     inkscape:snap-intersection-paths="true"
     inkscape:object-nodes="true"
     inkscape:snap-smooth-nodes="true"
     inkscape:snap-midpoints="true"
     inkscape:snap-object-midpoints="true"
     inkscape:snap-center="true"
     showguides="true"
     inkscape:guide-bbox="true"
     inkscape:window-width="1029"
     inkscape:window-height="771"
     inkscape:window-x="48"
     inkscape:window-y="93"
     inkscape:window-maximized="0"
     inkscape:snap-global="true"
     fit-margin-top="0"
     fit-margin-left="0"
     fit-margin-right="0"
     fit-margin-bottom="0"
     showborder="true"
     inkscape:showpageshadow="false"
     inkscape:snap-page="true">
    <inkscape:grid
       type="xygrid"
       id="grid3075"
       empspacing="5"
       visible="true"
       enabled="true"
       snapvisiblegridlinesonly="true"
       originx="1.6362304e-08"
       originy="18"
       spacingx="1"
       spacingy="1" />
  </sodipodi:namedview>
  <defs
     id="defs13096">
    <filter
       inkscape:collect="always"
       style="color-interpolation-filters:sRGB"
       id="filter6378"
       x="-0.075524362"
       width="1.1510487"
       y="-0.068640103"
       height="1.1372802">
      <feGaussianBlur
         inkscape:collect="always"
         stdDeviation="2.1335632"
         id="feGaussianBlur6380" />
    </filter>
  </defs>
  <metadata
     id="metadata13099">
    <rdf:RDF>
      <cc:Work
         rdf:about="">
        <dc:format>image/svg+xml</dc:format>
        <dc:type
           rdf:resource="http://purl.org/dc/dcmitype/StillImage" />
        <dc:title />
      </cc:Work>
    </rdf:RDF>
  </metadata>
  <path
     style="color:#000000;fill:#2e67d0;fill-opacity:1;fill-rule:nonzero;stroke:none;stroke-width:2.28571415;marker:none;visibility:visible;display:inline;overflow:visible;enable-background:accumulate"
     d="M 0 4 L 0 34 L 0 62 L 2 64 L 32 64 L 62 64 L 64 62 L 64 34 L 64 4 L 32 4 L 0 4 z "
     id="path6498" />
  <path
     style="color:#000000;fill:#5fa2ff;fill-opacity:1;fill-rule:nonzero;stroke:none;marker:none;visibility:visible;display:inline;overflow:visible;enable-background:accumulate;stroke-width:2.28571415000000000"
     d="M 2 0 L 0 1 L 0 4 L 32 4 L 64 4 L 64 1 L 62 0 L 32 0 L 2 0 z "
     id="path6502" />
  <path
     style="fill:#79b1ff;fill-opacity:1;fill-rule:nonzero"
     d="M 0,3 0,6 2,4 Z"
     id="path4298"
     inkscape:connector-curvature="0"
     sodipodi:nodetypes="cccc" />
  <path
     d="M 64,6 62,4 64,3 z"
     id="path3028"
     style="fill:#4582e6;fill-opacity:1"
     inkscape:connector-curvature="0" />
  <g
     id="g3043"
     inkscape:export-filename="folder.png"
     inkscape:export-xdpi="90"
     inkscape:export-ydpi="90"
     transform="translate(-0.62500009,0.082283)" />
  <g
     id="scalable"
     transform="matrix(1.0385892,0,0,1.0385892,1214.7222,1878.8121)"
     inkscape:label="#g3701"
     style="fill:#ffffff" />
  <style
     id="style119"
     type="text/css">
	.st0{fill:#F05125;}
	.st1{fill:#7FBB42;}
	.st2{fill:#FDB813;}
	.st3{fill:#33A0DA;}
</style>
  <g
     id="g131"
     transform="matrix(0.64436578,0,0,0.58563003,9.704944,11.687496)"
     style="filter:url(#filter6378)">
    <polygon
       id="polygon123"
       points="0.7,36.1 25.3,36.1 25.3,9.1 0.7,13.9 "
       class="st0"
       style="fill:#f05125" />
    <polygon
       id="polygon125"
       points="28.8,36.1 68.5,36.1 68.5,0.8 28.8,8.5 "
       class="st1"
       style="fill:#7fbb42" />
    <polygon
       id="polygon127"
       points="68.5,39.5 28.8,39.5 28.8,67.5 68.5,75.4 "
       class="st2"
       style="fill:#fdb813" />
    <polygon
       id="polygon129"
       points="25.3,39.5 0.7,39.5 0.7,61.9 25.3,66.8 "
       class="st3"
       style="fill:#33a0da" />
  </g>
  <polygon
     id="polygon6097"
     points="25.3,9.1 0.7,13.9 0.7,36.1 25.3,36.1 "
     class="st0"
     style="fill:#f05125"
     transform="matrix(0.64436578,-1.8142139e-4,0,0.58563003,9.6232449,11.880041)" />
  <polygon
     id="polygon6099"
     points="68.5,0.8 28.8,8.5 28.8,36.1 68.5,36.1 "
     class="st1"
     style="fill:#7fbb42"
     transform="matrix(0.64436578,-1.8142139e-4,0,0.58563003,9.6232449,11.880041)" />
  <polygon
     id="polygon6101"
     points="28.8,67.5 68.5,75.4 68.5,39.5 28.8,39.5 "
     class="st2"
     style="fill:#fdb813"
     transform="matrix(0.64436578,-1.8142139e-4,0,0.58563003,9.6232449,11.880041)" />
  <polygon
     id="polygon6103"
     points="0.7,61.9 25.3,66.8 25.3,39.5 0.7,39.5 "
     class="st3"
     style="fill:#33a0da"
     transform="matrix(0.64436578,-1.8142139e-4,0,0.58563003,9.6232449,11.880041)" />
</svg>
